COVER ::
 
http://i.minus.com/i4uM11IoxhXhx.png

SCREEN ::
 
http://i.minus.com/i5TJKPPUof0bt.png
 
http://i.minus.com/ieygpjVxEAV5y.png
 
http://i.minus.com/iAYq92oYbX1Nc.png
 
http://i.minus.com/ibiF02XD3UGzL0.png
 
http://i.minus.com/iRvhgcUTQ1hlY.png
 
http://i.minus.com/ib0V3UrxgBx9AZ.png
 
http://i.minus.com/iwyTwaTHI99n.png
 
http://i.minus.com/i3WMSI4HAsbAF.png
 
http://i.minus.com/ipDFAETCIctsQ.png


General ::
Format                           : AVI
Format/Info                      : Audio Video Interleave
File size                        : 30.5 MiB
Duration                         : 1mn 30s
Overall bit rate                 : 2 819 Kbps


Video Info ::
ID                               : 0
Format                           : AVC
Format/Info                      : Advanced Video Codec
Format profile                   : High@L5.1
Format settings, CABAC           : Yes
Format settings, ReFrames        : 2 frames
Codec ID                         : H264
Duration                         : 10s 0ms
Bit rate                         : 2 615 Kbps
Width                            : 1 280 pixels
Height                           : 544 pixels
Display aspect ratio             : 2.35:1
Frame rate                       : 30.000 fps
Color space                      : YUV
Chroma subsampling               : 4:2:0
Bit depth                        : 8 bits
Scan type                        : Progressive
Bits/(Pixel*Frame)               : 0.125
Stream size                      : 28.3 MiB (93%)


Audio Info ::
ID                               : 1
Format                           : MPEG Audio
Format version                   : Version 1
Format profile                   : Layer 3
Codec ID                         : 55
Codec ID/Hint                    : MP3
Duration                         : 1mn 30s
Bit rate mode                    : Constant
Bit rate                         : 192 Kbps
Channel(s)                       : 2 channels
Sampling rate                    : 44.1 KHz
Compression mode                 : Lossy
Stream size                      : 2.08 MiB (7%)